<svg xmlns="http://www.w3.org/2000/svg" width="32" height="32" viewBox="0 0 32 32" fill="none">
  <circle cx="16" cy="16" r="16" fill="url(#paint0_linear)" />
  <path d="M10 12.5C10 11.1193 11.1193 10 12.5 10H19.5C20.8807 10 22 11.1193 22 12.5V19.5C22 20.8807 20.8807 22 19.5 22H12.5C11.1193 22 10 20.8807 10 19.5V12.5Z" fill="black" fill-opacity="0.4" />
  <path d="M14.4 8L17.6 8C19.9255 8 21.6 9.34903 21.6 11.2V20.8C21.6 22.651 19.9255 24 17.6 24H14.4C12.0745 24 10.4 22.651 10.4 20.8V11.2C10.4 9.34903 12.0745 8 14.4 8Z" fill="url(#paint1_linear)" />
  <path d="M11.7234 14.3333H14.4532C15.5578 14.3333 16.4532 15.2288 16.4532 16.3333V16.3333C16.4532 17.4379 15.5578 18.3333 14.4532 18.3333H11.7234" stroke="white" stroke-width="1.2" stroke-linecap="round" stroke-linejoin="round" />
  <path d="M20.2767 14.3333H17.5469C16.4423 14.3333 15.5469 15.2288 15.5469 16.3333V16.3333C15.5469 17.4379 16.4423 18.3333 17.5469 18.3333H20.2767" stroke="white" stroke-opacity="0.5" stroke-width="1.2" stroke-linecap="round" stroke-linejoin="round" />
  <defs>
    <linearGradient id="paint0_linear" x1="0" y1="0" x2="32" y2="32" gradientUnits="userSpaceOnUse">
      <stop stop-color="#3B82F6" />
      <stop offset="1" stop-color="#9333EA" />
    </linearGradient>
    <linearGradient id="paint1_linear" x1="10.4" y1="8" x2="21.6" y2="24" gradientUnits="userSpaceOnUse">
      <stop stop-color="#3B82F6" />
      <stop offset="1" stop-color="#9333EA" />
    </linearGradient>
  </defs>
</svg> 