<svg xmlns="http://www.w3.org/2000/svg" width="120" height="40" viewBox="0 0 120 40" fill="none">
  <path d="M18 7L25 7C27.7614 7 30 9.23858 30 12V28C30 30.7614 27.7614 33 25 33H18C15.2386 33 13 30.7614 13 28V12C13 9.23858 15.2386 7 18 7Z" fill="url(#paint0_linear)" />
  <path d="M13 17H20C22 17 23 18 23 20V20C23 22 22 23 20 23H13" stroke="white" stroke-width="2" stroke-linecap="round" stroke-linejoin="round" />
  <path d="M30 17H23C21 17 20 18 20 20V20C20 22 21 23 23 23H30" stroke="white" stroke-opacity="0.5" stroke-width="2" stroke-linecap="round" stroke-linejoin="round" />
  
  <!-- Text Part -->
  <path d="M43 27H40V13H47.3C48.4333 13 49.3833 13.1833 50.15 13.55C50.9167 13.9167 51.4833 14.4333 51.85 15.1C52.2167 15.7667 52.4 16.5333 52.4 17.4C52.4 18.2667 52.2167 19.0333 51.85 19.7C51.4833 20.3667 50.9167 20.8833 50.15 21.25C49.3833 21.6167 48.4333 21.8 47.3 21.8H43V27ZM43 19.4H47.1C47.8333 19.4 48.3833 19.2167 48.75 18.85C49.1167 18.4833 49.3 18 49.3 17.4C49.3 16.8 49.1167 16.3167 48.75 15.95C48.3833 15.5833 47.8333 15.4 47.1 15.4H43V19.4Z" fill="url(#paint1_linear)" />
  <path d="M53.9953 27V13H57.0953V19.1H64.4953V13H67.5953V27H64.4953V21.5H57.0953V27H53.9953Z" fill="url(#paint1_linear)" />
  <path d="M74.7906 27.2C73.4573 27.2 72.2573 26.9 71.1906 26.3C70.124 25.7 69.2906 24.8667 68.6906 23.8C68.1073 22.7333 67.8156 21.5 67.8156 20.1C67.8156 18.7 68.1073 17.4667 68.6906 16.4C69.2906 15.3333 70.124 14.5 71.1906 13.9C72.2573 13.3 73.4573 13 74.7906 13C76.124 13 77.3156 13.3 78.3656 13.9C79.4323 14.5 80.2573 15.3333 80.8406 16.4C81.424 17.4667 81.7156 18.7 81.7156 20.1C81.7156 21.5 81.424 22.7333 80.8406 23.8C80.2573 24.8667 79.4323 25.7 78.3656 26.3C77.3156 26.9 76.124 27.2 74.7906 27.2ZM74.7906 24.7C75.5573 24.7 76.2406 24.5333 76.8406 24.2C77.4406 23.8667 77.9073 23.3667 78.2406 22.7C78.574 22.0333 78.7406 21.1333 78.7406 20C78.7406 18.8667 78.574 17.9667 78.2406 17.3C77.9073 16.6333 77.4406 16.1333 76.8406 15.8C76.2406 15.4667 75.5573 15.3 74.7906 15.3C74.024 15.3 73.3406 15.4667 72.7406 15.8C72.1406 16.1333 71.674 16.6333 71.3406 17.3C71.0073 17.9667 70.8406 18.8667 70.8406 20C70.8406 21.1333 71.0073 22.0333 71.3406 22.7C71.674 23.3667 72.1406 23.8667 72.7406 24.2C73.3406 24.5333 74.024 24.7 74.7906 24.7Z" fill="url(#paint1_linear)" />
  <path d="M88.9859 27.2C87.6192 27.2 86.3859 26.9167 85.2859 26.35C84.1859 25.7833 83.3192 24.9833 82.6859 23.95C82.0526 22.9167 81.7359 21.6833 81.7359 20.25C81.7359 18.8167 82.0526 17.5833 82.6859 16.55C83.3192 15.5167 84.1859 14.7167 85.2859 14.15C86.3859 13.5833 87.6192 13.3 88.9859 13.3C90.1192 13.3 91.1359 13.5 92.0359 13.9C92.9359 14.2833 93.6859 14.8333 94.2859 15.55L92.4359 17.45C91.6026 16.45 90.5192 15.95 89.1859 15.95C88.3526 15.95 87.6192 16.1333 86.9859 16.5C86.3526 16.8667 85.8526 17.3833 85.4859 18.05C85.1359 18.7167 84.9609 19.4833 84.9609 20.35C84.9609 21.2167 85.1359 21.9833 85.4859 22.65C85.8526 23.3167 86.3526 23.8333 86.9859 24.2C87.6192 24.5667 88.3526 24.75 89.1859 24.75C90.5192 24.75 91.6026 24.25 92.4359 23.25L94.2859 25.15C93.6859 25.8667 92.9359 26.4167 92.0359 26.8C91.1359 27.0667 90.1192 27.2 88.9859 27.2Z" fill="url(#paint1_linear)" />
  <path d="M95.8359 27V13H98.9359V24.6H105.236V27H95.8359Z" fill="url(#paint1_linear)" />
  <path d="M106.691 27V13H109.791V27H106.691Z" fill="white" fill-opacity="0.5" />
  <path d="M44 33V31.4H50.8V33H44Z" fill="white" fill-opacity="0.5" />
  <path d="M52.18 33V21H55.08L58.46 27.68C58.5667 27.8933 58.6867 28.1533 58.82 28.46C58.9533 28.7667 59.08 29.0867 59.2 29.42C59.3333 29.7533 59.44 30.08 59.52 30.4H59.56C59.4933 29.9333 59.4467 29.4467 59.42 28.94C59.4067 28.4333 59.4 27.9533 59.4 27.5V21H62.06V33H59.16L55.78 26.3C55.6733 26.0867 55.5533 25.8267 55.42 25.52C55.2867 25.2133 55.1533 24.8933 55.02 24.56C54.9 24.2267 54.7933 23.9067 54.7 23.6H54.66C54.74 24.1067 54.7867 24.6067 54.8 25.1C54.8267 25.58 54.84 26.0467 54.84 26.5V33H52.18Z" fill="white" fill-opacity="0.5" />
  <path d="M65.2086 33V23.22H69.3286C70.1553 23.22 70.8353 23.3467 71.3686 23.6C71.902 23.8533 72.302 24.2067 72.5686 24.66C72.8353 25.1 72.9686 25.62 72.9686 26.22C72.9686 26.82 72.8353 27.34 72.5686 27.78C72.302 28.22 71.902 28.5733 71.3686 28.84C70.8353 29.0933 70.1553 29.22 69.3286 29.22H66.8486V33H65.2086ZM66.8486 27.82H69.1686C69.8486 27.82 70.3553 27.6733 70.6886 27.38C71.022 27.0867 71.1886 26.7 71.1886 26.22C71.1886 25.74 71.022 25.3533 70.6886 25.06C70.3553 24.7667 69.8486 24.62 69.1686 24.62H66.8486V27.82Z" fill="white" fill-opacity="0.5" />
  <path d="M75.3961 33V23.22H82.5161V24.62H77.0361V27.4H82.0361V28.8H77.0361V31.6H82.6561V33H75.3961Z" fill="white" fill-opacity="0.5" />
  
  <defs>
    <linearGradient id="paint0_linear" x1="13" y1="7" x2="30" y2="33" gradientUnits="userSpaceOnUse">
      <stop stop-color="#3B82F6" />
      <stop offset="1" stop-color="#9333EA" />
    </linearGradient>
    <linearGradient id="paint1_linear" x1="40" y1="13" x2="109.791" y2="27.2" gradientUnits="userSpaceOnUse">
      <stop stop-color="#3B82F6" />
      <stop offset="1" stop-color="#9333EA" />
    </linearGradient>
  </defs>
</svg> 